# xmcd CD database file
#
# Track frame offsets:
#	150
#	20304
#	39779
#	55418
#	75231
#	98530
#	118229
#	135411
#	153014
#	165332
#	182995
#	198162
#	215118
#	235630
#	253679
#	276955
#	294134
#
# Disc length: 4192 seconds
#
# Revision: 0
# Processed by: cddbd v1.5.2PL0 Copyright (c) Steve Scherf et al.
# Submitted via: CDex 1.51
#
DISCID=d4105e11
DTITLE=Ana Popovic - The Queen Of Blues Guitar
DYEAR=2007
DGENRE=Blues
TTITLE0=Love Forever
TTITLE1=Game Of Love
TTITLE2=Comfort To The Soul
TTITLE3=Hometown
TTITLE4=Neighbour, Neighbour
TTITLE5=Mended
TTITLE6=Sittin On Top Of The World
TTITLE7=Girl Of Many Words
TTITLE8=The Hustle Is On
TTITLE9=Don't Bear Down On Me
TTITLE10=Bring Your Fine Self Home
TTITLE11=Recall The Days
TTITLE12=New York City
TTITLE13=Downtown
TTITLE14=Love Me Again
TTITLE15=Statesboro Blues
TTITLE16=Change My Mind
EXTD=YEAR: 2007
EXTT0=
EXTT1=
EXTT2=
EXTT3=
EXTT4=
EXTT5=
EXTT6=
EXTT7=
EXTT8=
EXTT9=
EXTT10=
EXTT11=
EXTT12=
EXTT13=
EXTT14=
EXTT15=
EXTT16=
PLAYORDER=
